<svg height="511pt" viewBox="-30 1 511 511.999" width="511pt" xmlns="http://www.w3.org/2000/svg"><path d="m297.910156 51.945312c-3.546875-1.472656-8.707031-1.082031-16.183594-.328124-6.804687.695312-13.84375 1.40625-21.09375-.027344-7.027343-1.390625-13.128906-4.683594-19.035156-7.871094-6.738281-3.636719-11.464844-6.023438-15.582031-6.023438-4.113281 0-8.832031 2.382813-15.585937 6.027344-5.902344 3.183594-12.007813 6.480469-19.027344 7.871094-7.257813 1.429688-14.292969.71875-21.101563.023438-7.46875-.757813-12.628906-1.144532-16.175781.328124-3.6875 1.527344-7.105469 5.507813-11.902344 11.410157-4.265625 5.25-8.679687 10.679687-14.707031 14.714843-6.089844 4.074219-12.828125 6.101563-19.347656 8.054688-7.453125 2.238281-12.175781 3.796875-14.960938 6.582031-2.78125 2.78125-4.339843 7.507813-6.582031 14.964844-1.957031 6.519531-3.980469 13.257813-8.054688 19.347656-4.039062 6.03125-9.46875 10.441407-14.738281 14.722657-5.886719 4.785156-9.859375 8.199218-11.386719 11.882812-1.472656 3.546875-1.085937 8.707031-.328124 16.179688.691406 6.808593 1.40625 13.84375-.027344 21.09375-1.390625 7.03125-4.683594 13.132812-7.871094 19.035156-3.640625 6.742187-6.023438 11.46875-6.023438 15.582031 0 4.117187 2.382813 8.84375 6.027344 15.59375 3.183594 5.898437 6.476563 12 7.867188 19.027344 1.433594 7.246093.71875 14.285156.027344 21.09375-.757813 7.46875-1.144532 12.628906.328124 16.179687 1.527344 3.6875 5.503907 7.097656 11.40625 11.898438 5.25 4.265625 10.679688 8.675781 14.71875 14.707031 4.074219 6.089844 6.097657 12.828125 8.0625 19.371094 2.238282 7.441406 3.796876 12.160156 6.578126 14.941406 2.023437 2.023437 5.117187 3.515625 11.417968 5.496094 3.925782 1.238281 8.113282-.941407 9.347656-4.871094 1.238282-3.929687-.945312-8.113281-4.871093-9.351563-3.082031-.96875-4.574219-1.578124-5.273438-1.914062-.898437-1.855469-2.238281-6.324219-2.925781-8.609375-2.0625-6.863281-4.625-15.40625-9.949219-23.355469-5.285156-7.898437-12.171875-13.492187-17.714843-17.996094-1.855469-1.507812-5.5-4.46875-6.882813-6.027343-.101563-2.105469.375-6.820313.59375-8.964844.726563-7.15625 1.628906-16.058594-.234375-25.492187-1.828125-9.230469-6.011719-16.984376-9.378906-23.222657-1.183594-2.191406-3.539063-6.554687-4.144532-8.5.605469-1.945312 2.964844-6.3125 4.144532-8.5 3.363281-6.230469 7.550781-13.988281 9.378906-23.222656 1.863281-9.433594.960938-18.339844.234375-25.5-.21875-2.140625-.695313-6.851563-.59375-8.957031 1.378906-1.558594 5.027344-4.523438 6.894531-6.039063 5.535156-4.496093 12.421875-10.09375 17.703125-17.984375 5.324219-7.949218 7.886719-16.492187 9.949219-23.355468.683594-2.277344 2.03125-6.765626 2.929688-8.621094 1.855468-.898438 6.34375-2.246094 8.621093-2.929688 6.859375-2.0625 15.402344-4.625 23.351563-9.945312 7.894531-5.285156 13.488281-12.171875 17.992187-17.710938 1.507813-1.855468 4.476563-5.511718 6.035157-6.894531 2.105468-.105469 6.816406.378906 8.960937.597656 7.152344.726563 16.054687 1.628907 25.496094-.234375 9.230469-1.828125 16.984375-6.015625 23.238281-9.386718 2.183594-1.179688 6.542969-3.53125 8.484375-4.140626 1.945313.609376 6.308594 2.964844 8.503906 4.152344 6.230469 3.363282 13.984375 7.546875 23.21875 9.371094 9.433594 1.867188 18.339844.964844 25.507813.234375 2.140625-.214844 6.847656-.691406 8.949218-.589844 1.558594 1.382813 4.523438 5.035157 6.039063 6.898438 4.496094 5.53125 10.09375 12.417969 17.984375 17.703125 7.945312 5.316406 16.484375 7.882812 23.355469 9.945312 2.273437.683594 6.761719 2.03125 8.617187 2.929688.898438 1.851562 2.242188 6.332031 2.933594 8.621094 2.058594 6.863281 4.625 15.40625 9.945312 23.355468 5.289063 7.898438 12.171876 13.488282 17.710938 17.988282 1.855469 1.507812 5.507812 4.476562 6.890625 6.035156.101563 2.105468-.378906 6.816406-.597656 8.964844-.726563 7.15625-1.628907 16.058593.238281 25.492187 1.824219 9.234375 6.011719 16.992187 9.375 23.222656 1.183594 2.1875 3.539062 6.554688 4.148438 8.5-.609376 1.945313-2.964844 6.3125-4.152344 8.503907-3.359375 6.230468-7.546875 13.984374-9.371094 23.21875-1.867188 9.4375-.964844 18.339843-.234375 25.5.214844 2.140624.695313 6.851562.59375 8.957031-1.382813 1.5625-5.039063 4.53125-6.898437 6.039062-5.53125 4.496094-12.417969 10.089844-17.703126 17.984375-5.320312 7.953125-7.886718 16.492188-9.949218 23.363282-.683594 2.273437-2.03125 6.757812-2.929688 8.613281-1.855468.898437-6.34375 2.246093-8.621094 2.929687-6.863281 2.0625-15.40625 4.628906-23.351562 9.949219-7.890625 5.28125-13.488281 12.167969-17.992188 17.707031-1.503906 1.855469-4.472656 5.507813-6.03125 6.890625-2.105468.101563-6.820312-.375-8.980468-.59375-7.148438-.726562-16.046875-1.628906-25.476563.238281-9.234375 1.824219-16.988281 6.011719-23.238281 9.382813-2.1875 1.179687-6.542969 3.53125-8.484375 4.140625-1.945313-.609375-6.3125-2.964844-8.507813-4.152344-6.230468-3.363281-13.984374-7.546875-23.214843-9.371094-3.78125-.75-7.714844-1.113281-12.027344-1.113281-4.855469 0-9.433594.464844-13.480469.878907-2.140625.214843-6.847656.695312-8.953125.59375-1.558593-1.386719-4.527343-5.039063-6.039062-6.898438-3.382813-4.167969-7.222657-8.890625-12.15625-13.210938-3.097657-2.714843-7.804688-2.40625-10.519531.691407-2.710938 3.097656-2.402344 7.808593.695312 10.519531 3.984375 3.492188 7.25 7.515625 10.414062 11.40625 4.789063 5.898438 8.207032 9.875 11.898438 11.40625 3.546875 1.472656 8.703125 1.082031 16.175781.324219 3.867188-.390625 7.863281-.800781 11.964844-.800781 3.328125 0 6.316406.273437 9.132813.832031 7.023437 1.386719 13.128906 4.683593 19.035156 7.867187 6.738281 3.640625 11.464844 6.023438 15.582031 6.023438 4.109375 0 8.832031-2.378906 15.585937-6.023438 5.902344-3.183594 12.003907-6.480468 19.027344-7.871094 7.246094-1.429687 14.28125-.71875 21.101563-.027343 7.464843.761719 12.625 1.144531 16.175781-.324219 3.6875-1.53125 7.101562-5.507812 11.898438-11.410156 4.265624-5.25 8.679687-10.679688 14.707031-14.714844 6.085937-4.074219 12.828125-6.097656 19.347656-8.058594 7.453125-2.234375 12.179687-3.796875 14.960937-6.578125s4.34375-7.507812 6.582032-14.964843c1.957031-6.519532 3.980468-13.257813 8.058594-19.347657 4.039062-6.03125 9.464843-10.441406 14.71875-14.707031 5.894531-4.792969 9.875-8.210938 11.40625-11.898438 1.46875-3.550781 1.082031-8.710937.324218-16.183593-.691406-6.804688-1.40625-13.839844.027344-21.09375 1.390625-7.023438 4.683594-13.125 7.871094-19.03125 3.640625-6.742188 6.023437-11.46875 6.023437-15.585938 0-4.117187-2.382812-8.839843-6.023437-15.582031-3.183594-5.902344-6.480469-12.003906-7.871094-19.035156-1.433594-7.246094-.71875-14.285156-.027344-21.09375.757813-7.46875 1.144532-12.632813-.328125-16.179688-1.527343-3.6875-5.503906-7.101562-11.40625-11.902344-5.25-4.261718-10.679687-8.671874-14.71875-14.703124-4.074219-6.089844-6.097656-12.832032-8.0625-19.371094-2.234375-7.441406-3.796875-12.164063-6.574219-14.941406-2.78125-2.78125-7.507812-4.34375-14.964843-6.582032-6.519531-1.957031-13.261719-3.980468-19.34375-8.054687-6.03125-4.035157-10.441407-9.464844-14.714844-14.722657-4.789063-5.902343-8.203125-9.878906-11.886719-11.40625zm0 0"/><path d="m440.984375 259c4.449219-8.242188 10.546875-19.539062 10.546875-33.484375 0-13.949219-6.097656-25.242187-10.550781-33.496094-1.410157-2.613281-3.773438-6.988281-4.0625-8.433593-.339844-1.730469.164062-6.691407.496093-9.972657.9375-9.210937 2.21875-21.828125-3.007812-34.429687-5.292969-12.769532-15.214844-20.828125-22.464844-26.722656-2.5-2.027344-6.273437-5.097657-7.15625-6.414063-.921875-1.378906-2.339844-6.097656-3.28125-9.226563-2.667968-8.890624-6.328125-21.070312-16.027344-30.769531-9.695312-9.695312-21.875-13.355469-30.789062-16.03125-3.113281-.9375-7.824219-2.351562-9.203125-3.277343-1.316406-.878907-4.382813-4.648438-6.410156-7.144532l-.015625-.015625c-2.597656-3.195312-7.285156-3.671875-10.480469-1.078125-3.195313 2.597656-3.671875 7.300782-1.074219 10.496094 3.34375 4.117188 6.507813 8.007812 9.683594 10.132812 3.238281 2.171876 8.082031 3.625 13.230469 5.171876 8.191406 2.460937 17.472656 5.25 24.515625 12.289062 7.042968 7.042969 9.828125 16.324219 12.292968 24.519531 1.539063 5.136719 2.996094 9.984375 5.167969 13.226563 2.128907 3.179687 6.019531 6.34375 10.152344 9.699218 6.671875 5.421876 14.234375 11.566407 18.085937 20.855469 3.785157 9.125 2.808594 18.734375 1.945313 27.210938-.542969 5.378906-1.0625 10.457031-.285156 14.371093.71875 3.652344 3.074219 8.007813 5.566406 12.632813 4.105469 7.605469 8.757813 16.226563 8.757813 26.402344 0 10.179687-4.652344 18.800781-8.757813 26.40625-2.492187 4.617187-4.84375 8.976562-5.566406 12.632812-.777344 3.914063-.257813 8.992188.285156 14.375.863281 8.476563 1.835937 18.082031-1.945313 27.207031-3.851562 9.285157-11.410156 15.429688-18.085937 20.855469-4.125 3.351563-8.023437 6.515625-10.152344 9.699219-2.171875 3.238281-3.628906 8.085938-5.171875 13.226562-2.457031 8.191407-5.246094 17.476563-12.289062 24.519532-7.042969 7.039062-16.324219 9.828125-24.519532 12.292968-5.132812 1.539063-9.980468 2.996094-13.226562 5.167969-3.183594 2.128907-6.347656 6.023438-9.699219 10.152344-5.421875 6.671875-11.566406 14.234375-20.855469 18.085937-9.125 3.78125-18.730468 2.808594-27.210937 1.945313-5.375-.542969-10.449219-1.058594-14.371094-.289063-3.648437.722657-8 3.070313-12.632812 5.570313-7.605469 4.105469-16.222657 8.757813-26.40625 8.757813-10.179688 0-18.800781-4.652344-26.410157-8.761719-4.617187-2.492188-8.976562-4.84375-12.625-5.566407-3.914062-.769531-8.988281-.257812-14.390624.289063-8.46875.859375-18.074219 1.835937-27.195313-1.945313-9.285156-3.851562-15.429687-11.414062-20.859375-18.097656-3.351562-4.121094-6.515625-8.011718-9.695312-10.140625-3.242188-2.171875-8.09375-3.628906-13.234376-5.171875-8.1875-2.460937-17.46875-5.25-24.511718-12.289062-7.039063-7.042969-9.828125-16.324219-12.289063-24.519532-1.542969-5.132812-3-9.984374-5.171875-13.230468-2.128906-3.179688-6.027344-6.34375-10.152344-9.695313-6.671874-5.421875-14.234374-11.566406-18.085937-20.855469-3.78125-9.125-2.804687-18.734374-1.945313-27.210937.546876-5.378906 1.0625-10.457031.289063-14.371094-.722656-3.652343-3.078125-8.015625-5.570313-12.636719-4.105468-7.605468-8.757812-16.222656-8.757812-26.402343 0-10.179688 4.652344-18.800781 8.757812-26.40625 2.492188-4.617188 4.847657-8.976563 5.570313-12.628907.773437-3.914062.257813-8.996093-.289063-14.378906-.859374-8.472656-1.835937-18.082031 1.945313-27.203125 3.855469-9.289062 11.417969-15.433593 18.089844-20.855469 4.121093-3.351562 8.019531-6.515624 10.152343-9.699218 2.167969-3.242188 3.625-8.09375 5.167969-13.226563 2.460938-8.191406 5.25-17.480469 12.292969-24.519531 7.039062-7.042969 16.324219-9.832031 24.53125-12.296875 5.128906-1.539063 9.976562-2.996094 13.210938-5.164063 3.183593-2.128906 6.347656-6.023437 9.703124-10.152343 5.417969-6.671875 11.5625-14.234375 20.855469-18.085938 9.125-3.785156 18.730469-2.808593 27.207031-1.945312 5.375.542969 10.449219 1.058593 14.375.285156 3.652344-.722656 8.015626-3.074219 12.632813-5.570313 7.601563-4.101562 16.222656-8.757812 26.402344-8.757812 10.183593 0 18.800781 4.65625 26.40625 8.757812 4.617187 2.492188 8.976562 4.847657 12.632812 5.570313 3.914063.777344 8.988281.257813 14.375-.285156 8.179688-.832031 17.453125-1.773438 26.308594 1.589843 3.851563 1.457032 8.152344-.476562 9.617187-4.324218 1.460938-3.847656-.472656-8.152344-4.324218-9.617188-12.152344-4.613281-24.265625-3.382812-33.121094-2.484375-3.277344.332031-8.234375.835938-9.960938.496094-1.453124-.289063-5.828124-2.652344-8.445312-4.0625-8.246094-4.453125-19.539062-10.546875-33.484375-10.546875-13.949219 0-25.242187 6.097656-33.488281 10.546875-2.617188 1.414063-6.996094 3.777344-8.4375 4.0625-1.738282.34375-6.699219-.160156-9.980469-.496094-9.210937-.933593-21.824219-2.214843-34.425781 3.007813-12.773438 5.300781-20.832032 15.21875-26.714844 22.460937-2.035156 2.5-5.105469 6.277344-6.425781 7.160157-1.375.925781-6.085938 2.339843-9.222657 3.28125-8.890624 2.671874-21.070312 6.328124-30.769531 16.027343s-13.355469 21.878907-16.027343 30.773438c-.9375 3.125-2.355469 7.839843-3.277344 9.222656-.886719 1.320313-4.816406 4.515625-7.164063 6.421875-7.246093 5.886719-17.164062 13.945312-22.460937 26.714844-5.222656 12.601562-3.941406 25.214844-3.003906 34.429687.332031 3.28125.835937 8.242188.492187 9.96875-.285156 1.449219-2.648437 5.828125-4.0625 8.445313-4.449219 8.246094-10.546875 19.539062-10.546875 33.488281 0 13.945313 6.09375 25.238281 10.546875 33.488281 1.410156 2.617188 3.777344 6.996094 4.0625 8.445313.34375 1.726562-.160156 6.6875-.496094 9.96875-.933593 9.210937-2.214843 21.828125 3.007813 34.429687 5.296875 12.769532 15.214844 20.828125 22.457031 26.714844 2.503906 2.03125 6.28125 5.101562 7.164063 6.421875.925781 1.378906 2.339843 6.097656 3.28125 9.226563 2.671874 8.894531 6.328124 21.070312 16.027343 30.769531 6.367188 6.363281 13.796875 10.121093 20.671875 12.710937l-32.886718 67.851563c-1.699219 3.507812-1.503907 7.59375.523437 10.925781 2.023437 3.332031 5.5625 5.382812 9.464844 5.484375l32.613281.859375 20.878906 25.070312c2.191406 2.632813 5.394532 4.117188 8.765625 4.117188.464844 0 .933594-.027344 1.40625-.085938 3.871094-.472656 7.195313-2.851562 8.898438-6.359374l33.074219-68.238282c1.445312-.128906 2.839843-.265625 4.160156-.402344 3.277344-.332031 8.234375-.835937 9.960937-.492187 1.449219.285156 5.824219 2.648437 8.445313 4.0625 8.246094 4.449219 19.539062 10.546875 33.484375 10.546875 13.953125 0 25.242187-6.097656 33.511719-10.558594 2.609374-1.410156 6.980468-3.765625 8.414062-4.050781 1.738281-.34375 6.699219.160156 9.984375.492187.886719.09375 1.820313.183594 2.769531.277344l33.136719 68.363282c1.699219 3.507812 5.027344 5.886718 8.898437 6.359374.46875.058594.9375.085938 1.402344.085938 3.371094 0 6.574219-1.484375 8.769532-4.117188l20.878906-25.070312 32.613281-.859375c3.898437-.101563 7.4375-2.152344 9.464844-5.484375 2.027343-3.332031 2.222656-7.417969.519531-10.929688l-32.683594-67.429687c7.175782-2.601563 15.078125-6.417969 21.785156-13.128906 9.699219-9.699219 13.359376-21.882813 16.03125-30.78125.9375-3.121094 2.355469-7.835938 3.277344-9.214844.882813-1.320313 4.816406-4.511719 7.171875-6.425781 7.242188-5.886719 17.15625-13.945313 22.453125-26.710938 5.222656-12.601562 3.941406-25.214844 3.003906-34.433594-.332031-3.28125-.835937-8.238281-.492187-9.964843.285156-1.453125 2.648437-5.828125 4.0625-8.449219zm-315.164063 235.195312-18.433593-22.132812c-2.105469-2.53125-5.199219-4.027344-8.484375-4.113281l-28.792969-.757813 31.445313-64.878906c2.152343.695312 4.164062 1.421875 4.988281 1.976562 1.320312.878907 4.386719 4.65625 6.425781 7.164063 5.886719 7.242187 13.945312 17.160156 26.714844 22.457031 4.617187 1.914063 9.234375 2.949219 13.6875 3.453125zm225.988282-26.246093c-3.285156.085937-6.378906 1.585937-8.480469 4.113281l-18.4375 22.132812-27.484375-56.710937c4.835938-.445313 9.886719-1.480469 14.9375-3.578125 12.773438-5.292969 20.832031-15.214844 26.71875-22.457031 2.03125-2.5 5.101562-6.277344 6.421875-7.160157.675781-.453124 2.15625-1.027343 3.855469-1.601562l31.265625 64.503906zm0 0"/><path d="m139.886719 260.777344c-.683594 3.472656-1.035157 7.171875-1.035157 11.046875 0 19.476562 16.773438 40.355469 30.84375 54.441406 3.113282 3.117187 7.257813 4.832031 11.664063 4.832031 3.816406 0 7.433594-1.292968 10.359375-3.667968 6.148438 10.628906 14.808594 20.566406 22.632812 28.398437 3.113282 3.117187 7.257813 4.835937 11.660157 4.835937 4.40625 0 8.550781-1.71875 11.664062-4.835937 7.824219-7.832031 16.484375-17.769531 22.632813-28.398437 2.925781 2.375 6.542968 3.667968 10.363281 3.667968 4.40625 0 8.546875-1.714844 11.660156-4.832031 14.070313-14.085937 30.84375-34.964844 30.84375-54.441406 0-3.875-.351562-7.574219-1.035156-11.046875 11.007813-12.925782 20.972656-28.761719 20.972656-43.769532 0-8.128906-1.585937-15.371093-4.527343-21.503906 5.402343-1.40625 9.664062-5.339844 11.476562-10.660156 1.898438-5.570312.757812-11.574219-3.054688-16.0625-9.921874-11.679688-25.242187-26.789062-41.890624-32.46875-19.257813-6.570312-31.691407-4.613281-39.457032-.707031-6.363281-3.683594-13.726562-6.019531-21.84375-6.921875v-30.859375c0-4.117188-3.339844-7.457031-7.457031-7.457031s-7.453125 3.339843-7.453125 7.457031v30.785156c-8.394531.847656-16 3.207031-22.542969 6.996094-7.730469-3.882813-20.160156-5.875-39.453125.707031-16.652344 5.675781-31.972656 20.789062-41.890625 32.464844-3.8125 4.488281-4.957031 10.492187-3.054687 16.0625 1.8125 5.324218 6.074218 9.257812 11.476562 10.664062-2.941406 6.132813-4.527344 13.371094-4.527344 21.5.003907 15.011719 9.964844 30.847656 20.972657 43.773438zm21.535156-72.347656c3.925781 0 7.515625.539062 10.742187 1.589843.925782 6.714844 3.257813 13.519531 6.457032 20.160157-4.578125 8.417968-6.90625 18.5-6.90625 30.039062 0 3.136719.363281 6.3125 1.015625 9.5-3.8125 4.609375-7.558594 8.546875-10.195313 11.1875-.378906.378906-.8125.460938-1.113281.460938-.296875 0-.730469-.082032-1.113281-.460938-16.828125-16.847656-26.480469-32.847656-26.480469-43.902344 0-25.789062 19.296875-28.574218 27.59375-28.574218zm64.59375-45.273438c11.84375 0 39.390625 3.964844 39.390625 40.699219 0 8.921875-4.21875 19.773437-12.539062 32.242187-2.285157 3.425782-1.359376 8.054688 2.0625 10.339844 2.769531 1.847656 6.324218 1.59375 8.792968-.378906 1.113282 4.269531 1.683594 8.996094 1.683594 14.160156 0 21.914062-25.265625 49.574219-36.128906 60.445312-.871094.875-2.03125 1.355469-3.261719 1.355469-1.234375 0-2.394531-.480469-3.265625-1.355469-10.863281-10.871093-36.128906-38.53125-36.128906-60.445312 0-5.007812.53125-9.605469 1.582031-13.773438 7.84375 11.378907 17.015625 21.40625 24 28.398438 3.6875 3.691406 8.59375 5.726562 13.8125 5.726562s10.121094-2.035156 13.8125-5.726562c2.207031-2.210938 4.382813-4.476562 6.472656-6.730469 2.792969-3.023437 2.613281-7.742187-.410156-10.535156-3.023437-2.796875-7.738281-2.613281-10.535156.410156-1.957031 2.117188-4.003907 4.242188-6.078125 6.316407-.871094.875-2.03125 1.355468-3.261719 1.355468-1.234375 0-2.394531-.480468-3.265625-1.355468-10.863281-10.871094-36.128906-38.53125-36.128906-60.445313 0-36.734375 27.550781-40.703125 39.394531-40.703125zm-43.542969 172.570312c-.382812.378907-.816406.460938-1.113281.460938-.300781 0-.734375-.082031-1.113281-.460938-15.53125-15.546874-24.941406-30.367187-26.304688-41.25 2.289063 1.171876 4.835938 1.800782 7.480469 1.800782 4.40625 0 8.546875-1.71875 11.660156-4.835938 1.820313-1.816406 3.554688-3.65625 5.25-5.496094 2.515625 5.316407 5.589844 10.523438 8.941407 15.496094-2.488282 5.832032-3.765626 12.511719-3.765626 19.949219 0 3.785156.640626 7.625 1.765626 11.457031-.921876.96875-1.855469 1.929688-2.800782 2.878906zm44.65625 29.5625c-.382812.382813-.816406.464844-1.113281.464844-.300781 0-.734375-.082031-1.113281-.464844-16.828125-16.847656-26.484375-32.847656-26.484375-43.898437 0-1.707031.09375-3.339844.261719-4.910156 4.785156 5.691406 9.515624 10.710937 13.523437 14.722656 3.6875 3.695313 8.59375 5.726563 13.808594 5.726563 5.21875 0 10.125-2.035157 13.8125-5.726563 4.007812-4.011719 8.738281-9.03125 13.523437-14.722656.167969 1.570312.261719 3.203125.261719 4.910156 0 11.050781-9.652344 27.054687-26.480469 43.898437zm44.65625-29.5625c-.382812.378907-.816406.460938-1.113281.460938s-.734375-.082031-1.113281-.460938c-.945313-.945312-1.878906-1.910156-2.804688-2.878906 1.125-3.832031 1.765625-7.671875 1.765625-11.457031 0-7.4375-1.277343-14.117187-3.761719-19.949219 3.347657-4.972656 6.421876-10.179687 8.9375-15.5 1.695313 1.84375 3.433594 3.679688 5.25 5.5 3.113282 3.117188 7.253907 4.835938 11.660157 4.835938h.003906c2.644531 0 5.1875-.632813 7.476563-1.800782-1.363282 10.882813-10.773438 25.703126-26.300782 41.25zm19.933594-54.820312c-.378906.378906-.8125.460938-1.109375.460938-.300781 0-.734375-.082032-1.113281-.460938-3.640625-3.644531-7.113282-7.460938-10.195313-11.1875.652344-3.1875 1.015625-6.363281 1.015625-9.5 0-11.527344-2.316406-21.597656-6.882812-30.003906 3.429687-7.121094 5.578125-13.871094 6.441406-20.199219 3.222656-1.046875 6.8125-1.585937 10.730469-1.585937 8.296875 0 27.597656 2.785156 27.597656 28.574218 0 11.054688-9.652344 27.054688-26.484375 43.902344zm-1.414062-110.484375c10.484374 3.574219 23.035156 13.523437 35.339843 28.011719.503907.589844.445313 1.195312.308594 1.59375-.136719.402344-.460937.917968-1.222656 1.078125-2.199219.46875-4.378907.867187-6.542969 1.234375-7.117188-5.671875-16.507812-8.820313-27.582031-8.820313-3.792969 0-7.410157.375-10.835938 1.109375-1.308593-10.796875-4.972656-20.117187-10.808593-27.535156 5.722656-.628906 12.984374.476562 21.34375 3.328125zm-163.921876 28.011719c12.308594-14.488282 24.859376-24.4375 35.339844-28.011719 8.355469-2.847656 15.621094-3.957031 21.34375-3.328125-5.835937 7.414062-9.5 16.734375-10.808594 27.535156-3.425781-.734375-7.042968-1.109375-10.835937-1.109375-11.074219 0-20.464844 3.148438-27.582031 8.820313-2.164063-.367188-4.34375-.769532-6.542969-1.234375-.761719-.164063-1.082031-.675781-1.21875-1.078125-.136719-.398438-.195313-1.003906.304687-1.59375zm0 0"/></svg>